<?xml version="1.0" encoding="utf-8"?>
<!-- Generator: Adobe Illustrator 19.0.0, SVG Export Plug-In . SVG Version: 6.00 Build 0)  -->
<svg version="1.1"
	 id="svg3049" xmlns:svg="http://www.w3.org/2000/svg" xmlns:rdf="http://www.w3.org/1999/02/22-rdf-syntax-ns#" xmlns:cc="http://creativecommons.org/ns#" xmlns:sodipodi="http://sodipodi.sourceforge.net/DTD/sodipodi-0.dtd" xmlns:inkscape="http://www.inkscape.org/namespaces/inkscape" xmlns:dc="http://purl.org/dc/elements/1.1/" inkscape:export-ydpi="90" inkscape:export-xdpi="90" inkscape:export-filename="/home/flo/Documents/binary_kitchen_nur_hut.png" sodipodi:docname="binary_kitchen_bw.svg" inkscape:version="0.48.1 r9760"
	 xmlns="http://www.w3.org/2000/svg" xmlns:xlink="http://www.w3.org/1999/xlink" x="0px" y="0px" viewBox="-43.3 77.3 474.8 422.3"
	 style="enable-background:new -43.3 77.3 474.8 422.3;" xml:space="preserve">
<style type="text/css">
	.st0{fill:#FFFFFF;}
</style>
<sodipodi:namedview  inkscape:cy="281.31664" showgrid="false" id="base" showguides="true" inkscape:cx="326.18059" inkscape:zoom="0.93025308" borderopacity="1.0" pagecolor="#000000" bordercolor="#666666" inkscape:guide-bbox="true" inkscape:window-maximized="1" inkscape:window-y="25" inkscape:window-x="0" inkscape:window-height="1033" inkscape:window-width="1920" inkscape:pageshadow="2" inkscape:current-layer="layer1" inkscape:pageopacity="0" inkscape:document-units="px">
	</sodipodi:namedview>
<g id="layer1" transform="translate(0,-452.36218)" inkscape:label="Layer 1" inkscape:groupmode="layer">
	<path id="path3021" inkscape:connector-curvature="0" class="st0" d="M114.3,529.7c-41.7,0-75.5,23.3-75.5,51.9
		c0,24.2,24,44.6,56.6,49.9c6.8,1.1,10.6,1.1,14.7,1.3c0.9,0,1.6,0.9,1.5,1.7c0,0.8-0.8,1.6-1.7,1.6c-6.1-0.3-6.8-0.3-11.3-0.7v15.3
		l-7.7,0c-3,0-5.5,2.4-5.4,5.3L91.9,767c0.2,3,2.4,5.1,5.4,5.3c52.2,3.7,105.1,3.9,158.6-0.1c3-0.2,5.2-2.4,5.3-5.3l6.1-110.9
		c0.2-3-2.4-5.3-5.3-5.3h-6.1l0-19.7c-1.8,0.2-4,0.3-7,0.3c-0.9,0-1.7-0.9-1.7-1.7c0-0.8,0.8-1.6,1.7-1.6c3.3,0.1,5.6,0,7.3-0.4
		c23.8-5.7,40.6-20.8,40.6-38.3c0-22.6-28.2-40.9-63-40.8c-18.2,0-34.6,5.1-46.1,13.1c2.2,3,4,5.2,6.1,6.8c2.1,1.6,4.5,2.4,8.2,2.6
		c0.9,0,1.6,0.9,1.5,1.7c0,0.8-0.8,1.6-1.7,1.6c-4.2-0.2-7.5-1.2-9.9-3.3c-3-2.5-4.5-3.5-7.2-8.2
		C173.5,543.5,146.3,529.7,114.3,529.7z M143.1,676.6l11.2,0.1c2.5,0,4.6,2.1,4.5,4.6l-0.7,68.9c0,2.5-2.1,4.6-4.7,4.6l-11.1-0.1
		c-2.5,0-4.6-2.1-4.5-4.6l0.7-68.9C138.5,678.6,140.6,676.6,143.1,676.6z M201.8,677.2c14.1,0.1,25.4,17.4,25.2,38.6
		s-11.8,38.3-25.9,38.1c-14.1-0.1-25.4-17.4-25.2-38.6S187.7,677.1,201.8,677.2z"/>
	
		<path id="use3078" sodipodi:nodetypes="sssscscssccsccsccsscscsssascssasssssassas" inkscape:connector-curvature="0" class="st0" d="
		M-16.2,751.9c-3.6-1.5-13.6-0.8-16.1,5.3l-10.4,25.3c-2.6,6.3,4.2,13.6,7.8,15.1l109.4,44.8c1.2-1.2,2.8-2,4.7-2
		c3.8-0.1,7,3,7.1,6.8c0.5,0.2,0.9,0.4,1.3,0.6c3.6,1.5,7.6-0.3,9.1-3.8l4.4-10.8l210.7,86.3c0.8,3.3,9.7,9.3,16.1,12.2
		c4,1.8,8.2,3.3,12.3,5c2.8-6.9,5.7-13.9,8.5-20.8c-4.1-1.7-8.1-3.6-12.3-5c-5.3-1.8-15.7-4.3-20.1-2.5L105.7,822l4.4-10.8
		c1.5-3.6-0.3-7.7-3.8-9.1l-1.3-0.5c-1.2,1.4-3,2.4-5.1,2.4c-3.8,0.1-7.1-3.3-7-7.4C55.2,781,17.9,765.9-16.2,751.9z M-15.3,765
		c35.4,14.3,68.9,28.1,104.3,42.6c1,0.5,1.5,1.9,1.1,2.8c-0.4,0.9-1.8,1.6-2.8,1.2l-103.8-42.4l0,0c-4.4-1.8-7.9-0.8-9.9,1.8
		c-0.8,1-2.4,1.2-3.2,0.5c-0.8-0.7-0.9-2.3-0.1-3.3c2.6-2.9,5.8-4.1,8.5-4.1C-19.2,764-17,764.3-15.3,765L-15.3,765z M-23.8,784.9
		c35.4,14.4,68.9,28.2,104.2,42.7c1.1,0.4,1.6,1.9,1.2,2.8s-1.8,1.6-2.9,1.2l-104-42.6c-1.2-0.5-1.7-1.9-1.3-2.9
		C-26.2,785.1-25,784.4-23.8,784.9z"/>
	<g id="use3083" transform="matrix(0.99372469,-0.43404267,0.43404267,0.99372469,-212.28056,469.90379)">
		
			<path id="path4374" sodipodi:nodetypes="sssccssccasssssscssccssccssccsssscsscscscsscssssacssssss" inkscape:connector-curvature="0" class="st0" d="
			M276.5,443.1l-9.3,0c-1.9,0-3.4,1.5-3.4,3.4l0,5.8l-13.7,8.4c-45.1,1.1-94.4,2.6-141.6,3.9c-3.6,0.1-6.4,2.9-6.4,6.4l0,6.7
			c-4.1,0.1-8.1,0.3-12.1,0.4c0.9-5.1-0.5-10.2-3.5-14c-3.6-4.5-8.9-7-15.4-7.8c-1.6-0.2-3.4-0.3-5.2-0.2c-1.8,0.1-3.7,0.4-5.4,1
			c-3.6,1.1-7.1,3.6-8.4,7.9c-1.1,3.6-1,7.6,1.1,11.1c2.1,3.4,6.1,5.8,11.8,6.7c4.8,0.7,9.6,1.1,14.3,1.3c-0.4,0.3-0.7,0.6-1.1,0.9
			c-2.9,1.7-6.7,2.6-10.4,2.7c-14.9,0.6-30.7,1.4-45.9,0.8l-0.2,6c15.5,0.6,31.4-0.1,46.3-0.8c4.5-0.2,9.1-1.3,13.1-3.5
			c2.6-1.5,4.9-3.5,6.5-6.1c4.8,0,9.6-0.2,14.4-0.3l0,4.5c0,3.6,2.8,6.4,6.4,6.4c46.8,0.7,96.9,1.4,141.6,3.9l13.7,8.4l0,5.8
			c0,1.9,1.5,3.4,3.4,3.4l9.3,0c1.9,0,3.5-1.5,3.5-3.4l0-21.1l117.3,0c2.3,0,4.2-1.8,4.2-4.1l0-4.4l29.3,0c2,0,7.6-1.6,7.6-3.6
			c0-2-5.6-3.6-7.6-3.6l-29.3,0l0-4.4c0-2.3-1.9-4.2-4.2-4.2l-117.3,0l0-21.1C279.9,444.6,278.4,443.1,276.5,443.1z M68.3,462.3
			c0.7,0,1.4,0,2.1,0.1c5.2,0.6,8.8,2.3,11.4,5.6c2.1,2.7,3.2,6.2,2.1,10.1c-6.1,0-12.1-0.3-18.1-1.2c-4.5-0.7-6.6-2.3-7.6-3.9
			c-1-1.6-1.1-3.8-0.4-6.3c0.6-2,2-3.1,4.4-3.8c1.2-0.4,2.6-0.6,4-0.7C66.9,462.3,67.6,462.3,68.3,462.3L68.3,462.3z"/>
	</g>
</g>
</svg>
